<svg width="16" height="16" viewBox="0 0 16 16" fill="none" xmlns="http://www.w3.org/2000/svg">
<path d="M3.24626 5.23203C3.16823 5.30495 3.10629 5.39171 3.06403 5.4873C3.02176 5.58288 3 5.68541 3 5.78896C3 5.89251 3.02176 5.99504 3.06403 6.09063C3.10629 6.18622 3.16823 6.27298 3.24626 6.3459L7.4089 10.268C7.4863 10.3415 7.57838 10.3998 7.67983 10.4397C7.78128 10.4795 7.8901 10.5 8 10.5C8.1099 10.5 8.21872 10.4795 8.32017 10.4397C8.42162 10.3998 8.5137 10.3415 8.5911 10.268L12.7537 6.3459C12.8318 6.27298 12.8937 6.18622 12.936 6.09063C12.9782 5.99504 13 5.89251 13 5.78896C13 5.68541 12.9782 5.58288 12.936 5.48729C12.8937 5.39171 12.8318 5.30495 12.7537 5.23203C12.6763 5.15851 12.5843 5.10015 12.4828 5.06033C12.3814 5.0205 12.2725 5 12.1626 5C12.0527 5 11.9439 5.0205 11.8425 5.06033C11.741 5.10015 11.6489 5.15851 11.5715 5.23203L8 8.60501L4.42845 5.23203C4.35106 5.15851 4.25898 5.10015 4.15753 5.06033C4.05608 5.0205 3.94726 5 3.83736 5C3.72745 5 3.61864 5.0205 3.51718 5.06033C3.41573 5.10015 3.32365 5.15851 3.24626 5.23203Z" fill="white"/>
</svg>
